<svg width="269" height="269" viewBox="0 0 269 269" fill="none" xmlns="http://www.w3.org/2000/svg">
<rect width="269" height="269" rx="134.5" fill="#3B684D"/>
<g clip-path="url(#clip0_193_854)">
<path d="M133.176 2.32208C133.325 0.594277 135.675 0.594327 135.824 2.32207L139.219 41.6854C139.501 44.9583 143.807 45.3539 144.603 42.1801L154.239 3.7637C154.659 2.08738 156.976 2.51742 156.849 4.24779L153.95 43.4169C153.707 46.6988 157.899 47.8731 159.181 44.8825L174.769 8.52716C175.447 6.94827 177.667 7.79326 177.266 9.47725L168.253 47.3514C167.492 50.5508 171.458 52.4682 173.185 49.7357L194.22 16.4618C195.131 15.0209 197.195 16.2526 196.536 17.8436L181.787 53.4204C180.532 56.4495 184.171 59.0526 186.292 56.6424L212.091 27.3235C213.207 26.0548 215.063 27.6344 214.167 29.0905L194.218 61.5047C192.508 64.2834 195.731 67.4974 198.186 65.4618L227.946 40.7926C229.236 39.7234 230.842 41.6039 229.737 42.8899L205.223 71.4301C203.111 73.8895 205.844 77.6263 208.571 76.0062L241.423 56.4936C242.852 55.6447 244.172 57.7741 242.891 58.8619L214.507 82.9668C212.053 85.0511 214.237 89.213 217.169 88.0398L252.231 74.0132C253.764 73.3998 254.775 75.7237 253.352 76.5913L221.815 95.8332C219.085 97.4988 220.676 101.982 223.746 101.278L260.154 92.916C261.757 92.5482 262.44 95.011 260.911 95.644L226.938 109.702C224.003 110.917 224.968 115.617 228.108 115.393L265.044 112.754C266.68 112.638 267.024 115.184 265.424 115.571L229.735 124.21C226.662 124.954 226.986 129.763 230.127 130.024L266.811 133.077C268.446 133.213 268.446 135.787 266.811 135.923L230.127 138.976C226.986 139.237 226.662 144.046 229.735 144.79L265.424 153.429C267.024 153.816 266.68 156.362 265.044 156.246L228.108 153.607C224.968 153.383 224.003 158.083 226.938 159.298L260.911 173.356C262.44 173.989 261.757 176.452 260.154 176.084L223.746 167.722C220.676 167.018 219.085 171.501 221.815 173.167L253.352 192.409C254.775 193.277 253.764 195.6 252.231 194.987L217.169 180.96C214.237 179.787 212.053 183.949 214.507 186.033L242.891 210.138C244.172 211.226 242.852 213.355 241.423 212.506L208.571 192.994C205.844 191.374 203.111 195.11 205.223 197.57L229.737 226.11C230.842 227.396 229.236 229.277 227.946 228.208L198.186 203.538C195.731 201.502 192.508 204.717 194.218 207.496L214.167 239.909C215.063 241.366 213.207 242.945 212.091 241.677L186.292 212.358C184.171 209.948 180.532 212.55 181.787 215.58L196.535 251.156C197.195 252.748 195.131 253.979 194.22 252.539L173.185 219.265C171.458 216.532 167.492 218.449 168.253 221.648L177.266 259.523C177.667 261.207 175.447 262.052 174.769 260.473L159.181 224.117C157.899 221.127 153.707 222.301 153.95 225.583L156.849 264.752C156.976 266.483 154.659 266.913 154.239 265.236L144.603 226.82C143.807 223.646 139.501 224.042 139.219 227.315L135.824 266.678C135.675 268.406 133.325 268.406 133.176 266.678L129.781 227.315C129.499 224.042 125.193 223.646 124.397 226.82L114.761 265.236C114.341 266.913 112.024 266.483 112.151 264.752L115.05 225.583C115.293 222.301 111.101 221.127 109.819 224.117L94.2307 260.473C93.5532 262.052 91.3333 261.207 91.734 259.523L100.747 221.648C101.508 218.449 97.5422 216.532 95.815 219.265L74.7799 252.539C73.8688 253.979 71.8053 252.748 72.4651 251.156L87.2126 215.58C88.4677 212.55 84.8291 209.948 82.7083 212.358L56.9089 241.677C55.7924 242.945 53.9365 241.366 54.8327 239.909L74.782 207.496C76.4923 204.717 73.2685 201.502 70.8135 203.538L41.0536 228.208C39.7638 229.277 38.1585 227.396 39.2632 226.11L63.7771 197.57C65.8895 195.11 63.1561 191.374 60.4293 192.994L27.5774 212.506C26.1483 213.355 24.8277 211.226 26.1086 210.138L54.4927 186.033C56.9467 183.949 54.7624 179.787 51.8304 180.96L16.7694 194.987C15.2359 195.6 14.2252 193.277 15.6479 192.408L47.1856 173.167C49.915 171.501 48.3245 167.018 45.2546 167.722L8.84585 176.084C7.24324 176.452 6.5602 173.989 8.08939 173.356L42.0616 159.298C44.9976 158.083 44.0315 153.383 40.8918 153.607L3.95668 156.246C2.32 156.362 1.97571 153.816 3.57589 153.429L39.2654 144.79C42.3385 144.046 42.0145 139.237 38.8736 138.976L2.18983 135.923C0.553975 135.787 0.55384 133.213 2.18985 133.077L38.8736 130.024C42.0145 129.763 42.3385 124.954 39.2654 124.21L3.57589 115.571C1.97574 115.184 2.31995 112.638 3.95667 112.754L40.8918 115.393C44.0315 115.617 44.9976 110.917 42.0616 109.702L8.08932 95.644C6.56023 95.011 7.24324 92.5482 8.84585 92.916L45.2546 101.278C48.3245 101.982 49.915 97.4988 47.1856 95.8332L15.6479 76.5913C14.2252 75.7237 15.2359 73.3997 16.7693 74.0132L51.8304 88.0398C54.7625 89.213 56.9467 85.0511 54.4927 82.9668L26.1086 58.8619C24.8277 57.7741 26.1484 55.6447 27.5774 56.4936L60.4293 76.0062C63.1561 77.6263 65.8895 73.8895 63.777 71.4301L39.2632 42.8899C38.1586 41.6038 39.7637 39.7234 41.0536 40.7926L70.8135 65.4618C73.2685 67.4974 76.4923 64.2834 74.782 61.5047L54.8327 29.0905C53.9365 27.6344 55.7924 26.0547 56.9089 27.3235L82.7083 56.6424C84.8291 59.0526 88.4677 56.4496 87.2126 53.4204L72.4651 17.8436C71.8053 16.2526 73.8688 15.021 74.7799 16.4618L95.815 49.7357C97.5422 52.4682 101.508 50.5508 100.747 47.3514L91.734 9.47725C91.3333 7.79319 93.5532 6.94834 94.2307 8.52716L109.819 44.8825C111.101 47.8731 115.293 46.6988 115.05 43.4168L112.151 4.24778C112.024 2.51736 114.341 2.0874 114.761 3.76367L124.397 42.18C125.193 45.3538 129.499 44.9583 129.781 41.6854L133.176 2.32208Z" stroke="#FFCD8F" stroke-opacity="0.3" stroke-width="2"/>
</g>
<path d="M66.43 154H49.68V152.66H53.03V124.52H49.68V123.18H63.08V131.153C63.482 128.964 64.1967 127.178 65.224 125.793C66.296 124.408 67.4573 123.493 68.708 123.046C70.0033 122.599 71.2317 122.376 72.393 122.376C73.599 122.376 74.738 122.599 75.81 123.046C76.9267 123.448 77.753 124.297 78.289 125.592C78.825 126.843 78.8473 128.116 78.356 129.411C77.8647 130.662 76.9937 131.555 75.743 132.091C74.537 132.627 73.4203 132.694 72.393 132.292C71.3657 131.89 70.6287 131.354 70.182 130.684C69.7353 129.969 69.4227 129.299 69.244 128.674C68.7973 127.021 68.1943 126.195 67.435 126.195C66.5863 126.195 65.6483 127.669 64.621 130.617C63.5937 133.52 63.08 136.602 63.08 139.863V152.66H66.43V154ZM105.183 154V150.449C104.334 151.655 102.994 152.682 101.163 153.531C99.376 154.335 97.433 154.737 95.3337 154.737C87.383 154.737 83.4077 150.427 83.4077 141.806V124.52H80.0577V123.18H93.4577V143.28C93.4577 146.451 93.9267 148.707 94.8647 150.047C95.8027 151.387 97.2097 152.057 99.0857 152.057C101.587 152.057 103.619 150.717 105.183 148.037V124.52H101.833V123.18H115.233V152.66H118.583V154H105.183ZM179.568 152.66H182.918V154H166.168V152.66H169.518V133.9C169.518 130.729 169.049 128.473 168.111 127.133C167.173 125.793 165.766 125.123 163.89 125.123C162.818 125.123 161.702 125.436 160.54 126.061C159.379 126.686 158.419 127.557 157.659 128.674C158.195 130.282 158.463 132.515 158.463 135.374V152.66H161.813V154H144.393V152.66H148.413V133.9C148.413 130.729 147.944 128.473 147.006 127.133C146.068 125.793 144.661 125.123 142.785 125.123C140.239 125.123 138.207 126.463 136.688 129.143V152.66H140.038V154H123.288V152.66H126.638V124.52H123.288V123.18H136.688V126.664C137.537 125.503 138.855 124.52 140.641 123.716C142.473 122.867 144.438 122.443 146.537 122.443C151.853 122.443 155.314 123.939 156.922 126.932C158.084 125.503 159.625 124.408 161.545 123.649C163.466 122.845 165.498 122.443 167.642 122.443C175.593 122.443 179.568 126.753 179.568 135.374V152.66ZM220.101 152.66C219.654 153.107 218.805 153.509 217.555 153.866C216.304 154.179 214.852 154.335 213.2 154.335C209.537 154.335 207.237 153.241 206.299 151.052C204.065 153.375 200.648 154.536 196.048 154.536C193.591 154.536 191.559 153.978 189.951 152.861C188.387 151.7 187.606 150.002 187.606 147.769C187.606 144.776 188.767 142.476 191.09 140.868C193.412 139.215 197.477 138.054 203.284 137.384L205.964 137.049V133.766C205.964 129.88 205.673 127.267 205.093 125.927C204.512 124.587 203.351 123.917 201.609 123.917C199.911 123.917 198.817 124.163 198.326 124.654C197.834 125.101 197.656 125.637 197.79 126.262C197.924 126.843 198.147 127.624 198.46 128.607C198.772 129.59 198.929 130.371 198.929 130.952C198.929 132.337 198.437 133.52 197.455 134.503C196.517 135.441 195.355 135.91 193.971 135.91C192.631 135.91 191.469 135.441 190.487 134.503C189.504 133.52 189.013 132.337 189.013 130.952C189.013 128.674 190.174 126.731 192.497 125.123C194.864 123.47 198.37 122.644 203.016 122.644C207.706 122.644 211.033 123.56 212.999 125.391C215.009 127.222 216.014 130.461 216.014 135.106V147.166C216.014 149.533 216.304 151.03 216.885 151.655C217.465 152.236 218.537 152.347 220.101 151.99V152.66ZM196.919 146.429C197.142 148.126 197.767 149.444 198.795 150.382C199.822 151.275 201.006 151.722 202.346 151.722C203.73 151.722 204.936 151.052 205.964 149.712V138.322L203.552 138.657C201.497 138.925 199.822 139.707 198.527 141.002C197.276 142.297 196.74 144.106 196.919 146.429Z" fill="#F0FAF0"/>
<defs>
<clipPath id="clip0_193_854">
<rect width="269" height="269" fill="white"/>
</clipPath>
</defs>
</svg>
